<?xml version="1.0" encoding="UTF-8" standalone="no"?>
<!-- Created with Inkscape (http://www.inkscape.org/) -->

<svg
   width="35.179047mm"
   height="33.651405mm"
   viewBox="0 0 35.179047 33.651406"
   version="1.1"
   id="svg1"
   xml:space="preserve"
   inkscape:version="1.4.3 (0d15f75, 2025-12-25)"
   sodipodi:docname="logo.svg"
   xmlns:inkscape="http://www.inkscape.org/namespaces/inkscape"
   xmlns:sodipodi="http://sodipodi.sourceforge.net/DTD/sodipodi-0.dtd"
   xmlns="http://www.w3.org/2000/svg"
   xmlns:svg="http://www.w3.org/2000/svg"><sodipodi:namedview
     id="namedview1"
     pagecolor="#ffffff"
     bordercolor="#000000"
     borderopacity="0.25"
     inkscape:showpageshadow="2"
     inkscape:pageopacity="0.0"
     inkscape:pagecheckerboard="0"
     inkscape:deskcolor="#d1d1d1"
     inkscape:document-units="mm"
     inkscape:zoom="1.0771772"
     inkscape:cx="510.59381"
     inkscape:cy="598.32311"
     inkscape:window-width="1920"
     inkscape:window-height="1057"
     inkscape:window-x="-8"
     inkscape:window-y="-8"
     inkscape:window-maximized="1"
     inkscape:current-layer="layer1"><inkscape:page
       x="0"
       y="0"
       width="35.179047"
       height="33.651405"
       id="page1"
       margin="0"
       bleed="0" /></sodipodi:namedview><defs
     id="defs1" /><g
     inkscape:label="Warstwa 1"
     inkscape:groupmode="layer"
     id="layer1"
     transform="translate(-56.945477,-129.41427)"><path
       style="fill:#ffffff;fill-opacity:1;stroke-width:0.264583"
       d="m 61.226543,158.20129 c 0,0 0.974455,4.76761 2.790107,4.8587 6.619934,0.33212 8.332444,-13.98851 8.332444,-13.98851 0,0 -14.320825,-2.86358 -15.333042,4.89118 -0.712933,5.4619 4.210491,4.23863 4.210491,4.23863 z"
       id="path1"
       sodipodi:nodetypes="cscsc"
       inkscape:export-filename="logo-full.svg"
       inkscape:export-xdpi="96"
       inkscape:export-ydpi="96" /><path
       style="fill:#ffffff;fill-opacity:1;stroke-width:0.264583"
       d="m 74.496809,131.53324 c 0,0 -4.227592,-2.4098 -5.492889,-1.10446 -4.613322,4.75932 5.027079,15.48666 5.027079,15.48666 0,0 11.59308,-8.88181 6.428657,-14.7546 -3.637453,-4.13637 -5.962847,0.3724 -5.962847,0.3724 z"
       id="path1-5"
       sodipodi:nodetypes="cscsc" /><path
       style="fill:#ffffff;fill-opacity:1;stroke-width:0.264583"
       d="m 87.878908,157.95035 c 0,0 4.492987,-1.86889 4.234907,-3.66841 -0.940968,-6.56113 -15.324631,-5.50125 -15.324631,-5.50125 0,0 -0.06987,14.60415 7.735264,14.11352 5.497382,-0.34556 3.35446,-4.94386 3.35446,-4.94386 z"
       id="path1-1"
       sodipodi:nodetypes="cscsc" /></g></svg>
