<?xml version="1.0" encoding="UTF-8"?>
<svg xmlns="http://www.w3.org/2000/svg" xmlns:xlink="http://www.w3.org/1999/xlink" width="133px" height="133px" viewBox="0 0 133 133" version="1.1">
<g id="surface1">
<path style=" stroke:none;fill-rule:nonzero;fill:rgb(100%,100%,100%);fill-opacity:1;" d="M 16.140625 114 C 16.140625 114 19.8125 132.882812 26.660156 133.242188 C 51.617188 134.558594 58.070312 77.847656 58.070312 77.847656 C 58.070312 77.847656 4.082031 66.503906 0.265625 97.214844 C -2.421875 118.847656 16.140625 114 16.140625 114 Z M 16.140625 114 "/>
<path style=" stroke:none;fill-rule:nonzero;fill:rgb(100%,100%,100%);fill-opacity:1;" d="M 66.171875 8.390625 C 66.171875 8.390625 50.230469 -1.152344 45.460938 4.019531 C 28.070312 22.867188 64.414062 65.347656 64.414062 65.347656 C 64.414062 65.347656 108.121094 30.175781 88.648438 6.917969 C 74.9375 -9.464844 66.171875 8.390625 66.171875 8.390625 Z M 66.171875 8.390625 "/>
<path style=" stroke:none;fill-rule:nonzero;fill:rgb(100%,100%,100%);fill-opacity:1;" d="M 116.621094 113.007812 C 116.621094 113.007812 133.5625 105.605469 132.589844 98.480469 C 129.039062 72.496094 74.8125 76.695312 74.8125 76.695312 C 74.8125 76.695312 74.546875 134.527344 103.972656 132.585938 C 124.699219 131.21875 116.621094 113.007812 116.621094 113.007812 Z M 116.621094 113.007812 "/>
</g>
</svg>
